REM DIRINDEX 1\2,1\3,1\4
REM DIRNAME cjc151,folder01,folder02,folder03
TITLE ""
FILE "001 001_CHAPTER 1_ Lesson 1_TOEFL_3900.mp3" MP3
  TRACK 01 AUDIO
    TITLE "4:cjc151_0001"
    INDEX 01 00:00:00
  TRACK 02 AUDIO
    TITLE "0:"
    INDEX 01 00:01:42
  TRACK 03 AUDIO
    TITLE "4:cjc151_0002"
    INDEX 01 00:02:06
  TRACK 04 AUDIO
    TITLE "0:"
    INDEX 01 00:03:35
  TRACK 05 AUDIO
    TITLE "2:cjc151_0003"
    INDEX 01 00:04:15
  TRACK 06 AUDIO
    TITLE "0:"
    INDEX 01 00:05:09
  TRACK 07 AUDIO
    TITLE "3:cjc151_0004"
    INDEX 01 00:06:65
  TRACK 08 AUDIO
    TITLE "0:"
    INDEX 01 00:10:29
  TRACK 09 AUDIO
    TITLE "2:cjc151_0005"
    INDEX 01 00:12:07
  TRACK 10 AUDIO
    TITLE "0:"
    INDEX 01 00:13:04
  TRACK 11 AUDIO
    TITLE "3:cjc151_0006"
    INDEX 01 00:14:56
  TRACK 12 AUDIO
    TITLE "0:"
    INDEX 01 00:18:50
  TRACK 13 AUDIO
    TITLE "2:cjc151_0007"
    INDEX 01 00:20:37
  TRACK 14 AUDIO
    TITLE "0:"
    INDEX 01 00:21:33
  TRACK 15 AUDIO
    TITLE "3:cjc151_0008"
    INDEX 01 00:23:16
  TRACK 16 AUDIO
    TITLE "0:"
    INDEX 01 00:26:28
  TRACK 17 AUDIO
    TITLE "2:cjc151_0009"
    INDEX 01 00:28:02
  TRACK 18 AUDIO
    TITLE "0:"
    INDEX 01 00:29:25
  TRACK 19 AUDIO
    TITLE "3:cjc151_0010"
    INDEX 01 00:31:02
  TRACK 20 AUDIO
    TITLE "0:"
    INDEX 01 00:34:42
  TRACK 21 AUDIO
    TITLE "2:cjc151_0011"
    INDEX 01 00:36:19
  TRACK 22 AUDIO
    TITLE "0:"
    INDEX 01 00:37:48
  TRACK 23 AUDIO
    TITLE "3:cjc151_0012"
    INDEX 01 00:39:27
  TRACK 24 AUDIO
    TITLE "0:"
    INDEX 01 00:44:16
  TRACK 25 AUDIO
    TITLE "2:cjc151_0013"
    INDEX 01 00:45:73
  TRACK 26 AUDIO
    TITLE "0:"
    INDEX 01 00:47:03
  TRACK 27 AUDIO
    TITLE "3:cjc151_0014"
    INDEX 01 00:48:61
  TRACK 28 AUDIO
    TITLE "0:"
    INDEX 01 00:53:27
  TRACK 29 AUDIO
    TITLE "2:cjc151_0015"
    INDEX 01 00:55:12
  TRACK 30 AUDIO
    TITLE "0:"
    INDEX 01 00:56:29
  TRACK 31 AUDIO
    TITLE "3:cjc151_0016"
    INDEX 01 00:58:07
  TRACK 32 AUDIO
    TITLE "0:"
    INDEX 01 01:02:30
  TRACK 33 AUDIO
    TITLE "2:cjc151_0017"
    INDEX 01 01:04:09
  TRACK 34 AUDIO
    TITLE "0:"
    INDEX 01 01:05:28
  TRACK 35 AUDIO
    TITLE "3:cjc151_0018"
    INDEX 01 01:07:04
  TRACK 36 AUDIO
    TITLE "0:"
    INDEX 01 01:11:02
  TRACK 37 AUDIO
    TITLE "2:cjc151_0019"
    INDEX 01 01:12:52
  TRACK 38 AUDIO
    TITLE "0:"
    INDEX 01 01:13:53
  TRACK 39 AUDIO
    TITLE "3:cjc151_0020"
    INDEX 01 01:15:33
  TRACK 40 AUDIO
    TITLE "0:"
    INDEX 01 01:19:34
  TRACK 41 AUDIO
    TITLE "2:cjc151_0021"
    INDEX 01 01:21:27
  TRACK 42 AUDIO
    TITLE "0:"
    INDEX 01 01:22:42
  TRACK 43 AUDIO
    TITLE "3:cjc151_0022"
    INDEX 01 01:24:22
  TRACK 44 AUDIO
    TITLE "0:"
    INDEX 01 01:29:05
  TRACK 45 AUDIO
    TITLE "2:cjc151_0023"
    INDEX 01 01:30:62
  TRACK 46 AUDIO
    TITLE "0:"
    INDEX 01 01:31:59
  TRACK 47 AUDIO
    TITLE "3:cjc151_0024"
    INDEX 01 01:33:46
  TRACK 48 AUDIO
    TITLE "0:"
    INDEX 01 01:38:08
  TRACK 49 AUDIO
    TITLE "2:cjc151_0025"
    INDEX 01 01:39:64
  TRACK 50 AUDIO
    TITLE "0:"
    INDEX 01 01:41:05
  TRACK 51 AUDIO
    TITLE "3:cjc151_0026"
    INDEX 01 01:42:59
  TRACK 52 AUDIO
    TITLE "0:"
    INDEX 01 01:47:17
  TRACK 53 AUDIO
    TITLE "2:cjc151_0027"
    INDEX 01 01:48:73
  TRACK 54 AUDIO
    TITLE "0:"
    INDEX 01 01:50:06
  TRACK 55 AUDIO
    TITLE "3:cjc151_0028"
    INDEX 01 01:51:58
  TRACK 56 AUDIO
    TITLE "0:"
    INDEX 01 01:55:62
  TRACK 57 AUDIO
    TITLE "2:cjc151_0029"
    INDEX 01 01:57:43
  TRACK 58 AUDIO
    TITLE "0:"
    INDEX 01 01:58:58
  TRACK 59 AUDIO
    TITLE "3:cjc151_0030"
    INDEX 01 02:00:31
  TRACK 60 AUDIO
    TITLE "0:"
    INDEX 01 02:04:31
  TRACK 61 AUDIO
    TITLE "2:cjc151_0031"
    INDEX 01 02:06:12
  TRACK 62 AUDIO
    TITLE "0:"
    INDEX 01 02:07:18
  TRACK 63 AUDIO
    TITLE "3:cjc151_0032"
    INDEX 01 02:08:66
  TRACK 64 AUDIO
    TITLE "0:"
    INDEX 01 02:12:68
  TRACK 65 AUDIO
    TITLE "2:cjc151_0033"
    INDEX 01 02:14:47
  TRACK 66 AUDIO
    TITLE "0:"
    INDEX 01 02:15:52
  TRACK 67 AUDIO
    TITLE "3:cjc151_0034"
    INDEX 01 02:17:20
  TRACK 68 AUDIO
    TITLE "0:"
    INDEX 01 02:20:60
  TRACK 69 AUDIO
    TITLE "2:cjc151_0035"
    INDEX 01 02:22:39
  TRACK 70 AUDIO
    TITLE "0:"
    INDEX 01 02:23:60
  TRACK 71 AUDIO
    TITLE "3:cjc151_0036"
    INDEX 01 02:25:35
  TRACK 72 AUDIO
    TITLE "0:"
    INDEX 01 02:29:57
  TRACK 73 AUDIO
    TITLE "2:cjc151_0037"
    INDEX 01 02:31:34
  TRACK 74 AUDIO
    TITLE "0:"
    INDEX 01 02:32:43
  TRACK 75 AUDIO
    TITLE "3:cjc151_0038"
    INDEX 01 02:34:17
  TRACK 76 AUDIO
    TITLE "0:"
    INDEX 01 02:38:24
  TRACK 77 AUDIO
    TITLE "2:cjc151_0039"
    INDEX 01 02:40:05
  TRACK 78 AUDIO
    TITLE "0:"
    INDEX 01 02:41:07
  TRACK 79 AUDIO
    TITLE "3:cjc151_0040"
    INDEX 01 02:42:63
  TRACK 80 AUDIO
    TITLE "0:"
    INDEX 01 02:46:63
  TRACK 81 AUDIO
    TITLE "2:cjc151_0041"
    INDEX 01 02:48:42
  TRACK 82 AUDIO
    TITLE "0:"
    INDEX 01 02:49:47
  TRACK 83 AUDIO
    TITLE "3:cjc151_0042"
    INDEX 01 02:51:27
  TRACK 84 AUDIO
    TITLE "0:"
    INDEX 01 02:54:74
  TRACK 85 AUDIO
    TITLE "2:cjc151_0043"
    INDEX 01 02:56:55
  TRACK 86 AUDIO
    TITLE "0:"
    INDEX 01 02:57:69
  TRACK 87 AUDIO
    TITLE "3:cjc151_0044"
    INDEX 01 02:59:44
  TRACK 88 AUDIO
    TITLE "0:"
    INDEX 01 03:04:04
  TRACK 89 AUDIO
    TITLE "2:cjc151_0045"
    INDEX 01 03:05:58
  TRACK 90 AUDIO
    TITLE "0:"
    INDEX 01 03:07:00
  TRACK 91 AUDIO
    TITLE "3:cjc151_0046"
    INDEX 01 03:08:57
  TRACK 92 AUDIO
    TITLE "0:"
    INDEX 01 03:11:67
